<svg xmlns="http://www.w3.org/2000/svg" width="400" height="200"><path fill="#080808" d="M0 0h400v200H0z"/><path fill="#fdfdfd" d="M0 0h400v200H0zm347.875 16.313c-16.14 4.127-32.85 5.244-49.437 6.25-11.24.449-11.24.449-21.563 4.312C274.129 29.988 273 31.817 273 36l-1.812.688c-3.4 2.04-4.646 4.579-5.817 8.324-1.725 6.91-3.011 13.729.629 20.176 2.894 4.068 6.381 7.79 11 9.812 5.718.383 10.91-.351 16.5-1.5l2.203-.434c1.767-.348 3.532-.706 5.297-1.066l-2.387 3.086A999 999 0 0 0 268 117l-.918-1.828c-2.487-4.744-4.55-8.11-9.082-11.172l-2-2 1.438-1.812c2.197-3.077 3.129-6.21 3.12-10.004-1.289-5.04-5.13-9.377-8.558-13.184h-2v-4l5-1c.136-2.398.234-4.788.313-7.187l.126-2.042c.097-3.968-.27-5.565-2.81-8.677-4.841-3.856-8.472-4.43-14.629-4.094-2.31.429-2.31.429-4 1v-2q-2.437-.04-4.875-.062l-2.742-.036c-2.4-.064-2.4-.064-4.383 1.098-1.62.275-3.247.52-4.875.75-12.955 2.136-25.489 5.258-37.625 10.313l-2.408.994c-4.021 1.75-7.43 3.311-10.092 6.943v4l-1.937.938c-2 .897-2 .897-3.063 2.062a111 111 0 0 0-1 4.5c-.889 4.389-.889 4.389-2 5.5l-.304-2.231c-.465-3.343-.955-6.68-1.446-10.019l-.477-3.512-.507-3.379-.445-3.11c-1.23-4.118-3.61-5.978-7.153-8.233-4.997-2.55-8.929-4.529-14.668-3.516-3.973 2.731-6.48 5.791-9.187 9.75A103 103 0 0 1 121 67h-2c-1.55-1.828-1.55-1.828-3.312-4.25-3.947-5.216-8.193-9.827-14.836-11.191-4.673-.27-4.673-.27-8.665 1.902C90.68 55.247 89.348 57.093 88 59a812 812 0 0 1-3 3 791 791 0 0 0-3 5l-2.062 2.188C77.192 73.173 76.698 77.273 76 82l-.7-2.492C72.143 67 72.143 67 64.5 57.188L62 56a282 282 0 0 1-5-5c-6.421-3.21-16.18-.76-22.793.773C28.902 53.803 26.748 57.208 24 62l-1.465 2.25C20.921 66.785 19.454 69.37 18 72l-.958 1.698C5.096 95.104.314 120.924 7 145c3.877 10.988 9.531 19.5 20 25 7.252 2.526 17.424 2.243 24.375-.937C58.746 164.738 64.649 158.303 69 151l1.238-1.828C74.69 142.5 76.778 135.895 78 128l.136 1.658c.809 9.647 1.68 19.283 3.239 28.842l.308 2.08c.78 4.47 2.116 7.207 5.317 10.42 3.595 2.366 6.382 2.311 10.543 1.738 4.554-1.368 8.328-4.19 11.457-7.738.647-2.6.647-2.6 1-5 1.938-1.062 1.938-1.062 4-2 2.058-3.183 2.295-5.9 2.414-9.64l.117-3.243.094-3.367.117-3.414q.141-4.168.258-8.336c6.675 10.93 12.838 21.19 15.742 33.75 1.678 4.336 3.418 5.666 7.258 8.25 4.207 1.245 7.43.296 11.25-1.687 2.73-2.296 4.655-4.433 6.75-7.313l1.508-1.434c4.165-4.375 5.017-8.313 4.93-14.23-.09-2.991-.258-5.974-.438-8.961q-.108-2.35-.209-4.7c-.547-11.92-1.459-23.816-2.791-35.675 1.696 1.696 1.343 3.923 1.525 6.25l.274 3.4.287 3.705q.315 3.852.633 7.702.497 6.094.973 12.192c.306 3.912.631 7.822.956 11.731l.275 3.675c.684 8.048 2.133 13.509 7.577 19.658l1.781 2.05c3.014 2.87 6.347 2.983 10.38 2.91 4.722-.552 8.97-2.474 13.339-4.273l1.977-.812c4.29-1.763 4.29-1.763 8.57-3.55 9.617-4.027 19.288-7.301 29.39-9.888l3.073-.812c4.177-1.083 7.646-1.938 11.99-1.938l-.25 3c.01 4.648 1.658 8.198 4.25 12 3.9 3.664 8.554 3.502 13.672 3.79C274 169 274 169 275 170c2.822.132 5.607.187 8.43.184l2.688-.003c11.706-.103 23.347-1.147 35.007-2.119q6.722-.554 13.445-1.09l3.328-.27c5.79-.451 11.557-.772 17.363-.913l3.578-.092q3.377-.075 6.756-.095c6.047-.128 9.87-.423 14.405-4.602l1-3 1.813-.875c3.49-1.795 5.494-4.695 7.187-8.187 1.265-2.451 3.057-3.995 5-5.938 2.46-3.568 2.432-6.747 2-11-2.926-6.286-7.099-11.241-13-15-2.47-.427-2.47-.427-5.164-.328l-3.113.013-3.348.065-3.47.038c-3.635.049-7.27.126-10.905.212l-3.572.08c-3.435.082-6.869.184-10.303.295l-3.143.093c-7.12.277-13.983 1.21-20.982 2.532 4.421-5.096 8.892-10.134 13.5-15.062l1.866-2.002c4.123-4.38 8.338-8.653 12.618-12.877l1.566-1.548q3.868-3.826 7.768-7.617 1.443-1.418 2.885-2.84l2.583-2.515c2.346-2.69 3.669-5.34 5.214-8.539l2.625-2.25c2.656-3.075 2.68-3.866 2.875-7.75.236-4.694.236-4.694 2.875-7.75L379 47l1.5-3c1.5-3 1.5-3 4.125-5.312 2.848-3.223 3.335-5.258 3.566-9.473-.32-3.705-1.66-5.558-4.191-8.215-2.435-1.347-4.387-2.162-7-3l-3.098-1.066c-9.664-3.185-16.338-3.265-26.027-.622"/><path fill="#fafafa" d="M379 25c2 2 2 2 2.496 5.262-.642 4.836-2.83 6.624-6.433 9.55a784 784 0 0 0-3.606 3.137l-1.794 1.556C365.766 48.008 362.429 52.05 359 56a1771 1771 0 0 1-4.5 5l-2.266 2.52a1738 1738 0 0 1-4.343 4.804c-6.252 6.902-12.341 13.94-18.429 20.986A1711 1711 0 0 1 321 99c3.886-2.826 6.854-6.02 9.96-9.637 7.34-8.506 15.11-16.596 22.978-24.613l2.512-2.603 2.39-2.413 2.136-2.18C363 56 363 56 367 56c-.53 4.07-2.565 5.9-5.445 8.703l-2.766 2.723q-1.456 1.413-2.914 2.824c-5.68 5.547-11.29 11.057-16.449 17.097-1.714 1.987-3.538 3.83-5.426 5.653-3.17 3.127-6.124 6.366-9.023 9.742-1.956 2.234-3.962 4.415-5.982 6.59A255 255 0 0 0 304 127l3.672-.402c9.808-1.044 19.58-1.868 29.438-2.256 3.723-.153 7.385-.38 11.081-.854 6.336-.745 12.687-.711 19.059-.738l3.797-.062 3.656-.016 3.302-.028c4.783.569 7.254 2.475 10.308 6.106 2.006 3.865 2.39 5.955 1.687 10.25-2.312 2.938-2.312 2.938-5 5h-3l-1 5-2.079.107q-10.731.555-21.462 1.12-4.002.21-8.005.416-5.76.298-11.52.603l-3.603.183c-5.505.295-10.888.699-16.331 1.571a121 121 0 0 1-4.129.316l-2.178.128-2.255.119-2.357.128c-7.032.357-14.04.41-21.081.309 2.571-2.571 4.605-2.801 8.125-3.625 1.096-.26 2.191-.52 3.32-.79L300 149l-1.908.383c-2.883.572-5.769 1.126-8.654 1.68l-3.002.603c-5.47 1.036-10.005 1.735-15.436.334-2.903-2.606-3.874-4.137-4.437-8 .484-3.323 1.514-5.276 3.437-8l-1-1c-.493-5.561.391-8.451 3.516-13.027l1.112-1.655a444 444 0 0 1 3.622-5.255l2.497-3.658c11.98-17.496 25.05-34.034 38.815-50.155l1.481-1.735c2.546-2.957 5.155-5.798 7.957-8.515-8.92 1.478-17.579 3.613-26.303 5.965-5.75 1.494-10.755 2.362-16.697 2.035l-1-3-1.875-.875c-2.921-1.546-3.767-3.137-5.125-6.125-.767-5.496 1.001-10.903 3-16 2.456-2.456 3.529-2.396 6.926-2.781l3.073-.36 3.313-.359 3.398-.388c7.152-.806 14.311-1.514 21.478-2.174 10.32-.951 20.482-2.067 30.562-4.563C359.697 19.8 368.4 21.096 379 25"/><path fill="#fbfbfb" d="M245 55c2.753 1.796 4.526 3.053 6 6 .04 2.333.043 4.667 0 7-5.992 2.757-12.06 4.6-18.437 6.188-8.463 2.124-16.726 4.735-25 7.5l-3.574 1.19C197.347 85.085 197.347 85.085 191 88v8l1.555-.848C208.033 87.05 229.233 76.98 247 80c3.125 2.25 3.125 2.25 5 5l1.813 1.938C255.482 89.837 255.48 91.71 255 95c-2.341 3.479-4.75 4.364-8.684 5.238a548 548 0 0 1-5.754 1.075c-15.114 3.019-29.901 7.18-43.48 14.62C195 117 195 117 193 117l.5 1.563c.65 3.17.562 6.21.5 9.437l3.227-1.695c5.564-2.78 11.34-4.97 17.148-7.18l3.47-1.322c6.716-2.54 13.437-5.067 20.218-7.428l2.065-.75c4.924-1.66 9.686-2.23 14.872-1.625 4.435 2.314 5.868 5.298 7.52 9.805 1.177 5.378.513 9.12-2.274 13.843-3.607 5.339-6.705 6.942-12.888 8.35l-3.296.627a821 821 0 0 0-6.976 1.625l-3.567.836c-5.596 1.453-10.946 3.453-16.332 5.539l-3.023 1.16a629 629 0 0 0-12.27 4.899c-5.903 2.398-10.49 4.162-16.894 3.316l-2-2v-3l-1.937-.875C179 151 179 151 178 149a123 123 0 0 1-.648-5.195l-.354-3.315-.373-3.615-.394-3.715a1270 1270 0 0 1-2.024-21.031l-.196-2.206a1609 1609 0 0 1-.92-10.699l-.345-3.915-.291-3.475c-.285-3.03-.285-3.03-2.455-5.834-.49-4.334-.44-8.032 2.336-11.602 11.74-9.866 34.617-11.945 49.297-14.675 3.546-.761 6.919-1.789 10.367-2.91 8.22-2.61 8.22-2.61 13-1.813"/><path fill="#f9f9f9" d="M55.188 55.86c2.509 1.578 2.94 3.379 3.812 6.14h4c10.823 20.904 14.375 45.588 9.25 68.75l-.475 2.162c-1.707 6.949-4.426 13.323-9.588 18.4l-1.894 1.926c-7.602 5.84-16.21 5.856-25.293 4.762-5.994-2.186-10.408-6.6-13.648-12.031-8.152-17.905-9.465-39.852-3.252-58.579C26.64 64.716 26.64 64.716 33 59l-1 2.938C30.948 64.62 30.948 64.62 31 66l2-3.25c5.125-7.098 13.827-10.175 22.188-6.89"/><path fill="#fbfbfb" d="M98.813 56.5c7.04 1.104 11.015 6.182 15.187 11.5 1.843 2.664 3.526 5.407 5.188 8.188l1.4 2.316c14.09 23.533 14.09 23.533 16.412 30.496-.547-8.153-1.84-16.005-3.5-24l-.684-3.387C131.643 75.745 131.643 75.745 130 70c-.374-4.041-.39-6.308 1.625-9.875 2.886-2.582 4.529-3.045 8.375-3.125 2.06.589 2.06.589 4 2 1.156 2.855 1.156 2.855 2.055 6.52l.496 2.01c1.911 7.98 3.267 16.06 4.574 24.158l.39 2.371C153.48 106.001 155.12 117.924 156 130c-.658-19.341-3.923-38.67-7.78-57.604L147.733 70l-.43-2.062C147 66 147 66 147 62l4 1c5.059 28.79 8.595 56.723 8 86h-1l-.25 3.313C157 156 157 156 155.313 157.938c-3.049 1.4-4.992 1.546-8.313 1.062-3.746-2.706-4.878-5.6-6-10l-.297-3.254c-.8-4.261-2.48-7.275-4.766-10.871-4.653-7.611-9.045-15.347-13.352-23.158q-1.61-2.915-3.226-5.827l-2.015-3.656-1.807-3.274A72 72 0 0 1 112 91h-2l.092 3q.516 16.998.908 34l.05 2.144c.094 4.16.157 8.32.2 12.481l.064 3.097.014 2.817.028 2.413c-.449 2.581-1.294 3.479-3.356 5.048h-2v2c-3.489 2.326-4.897 2.419-9 2-2.148-1.18-2.148-1.18-4-3-.574-2.434-.574-2.434-.687-5.437l-.165-3.446-.067-1.942a473 473 0 0 0-.354-7.48A2449 2449 0 0 1 91 124v17h-1c-1.945-11.52-1.732-23.346-2-35l-.061-2.513a1231 1231 0 0 1-.28-16.222 560 560 0 0 0-.094-5.389c-.054-2.54-.075-5.08-.088-7.622l-.069-2.304c.016-4.034.383-5.704 3.035-8.821L93 61l1.438-2.312C96 57 96 57 98.812 56.5"/><path fill="#0c0c0c" d="M46 71c3 1 3 1 4.063 2.582 8.182 19.469 9.212 45.502 2.421 65.371-1.503 3.085-2.807 4.92-5.484 7.047-3.58.676-5.836.735-8.973-1.246-3.011-2.48-4.772-3.99-6.027-7.754h6l-.656-3.305C33.598 113.853 33.319 94.727 42 76c1.34 4.02.139 6.14-1.21 10.04-2.047 7.678-1.946 15.564-1.915 23.46l-.012 2.973c.008 5.923.372 11.653 1.137 17.527l-.063-2.927C39.547 107.419 39.608 89.8 46 71"/><path fill="#e7e7e7" d="m147 62 4 1c5.059 28.79 8.595 56.723 8 86h-1l-.684-5.86c-.26-2.1-.26-2.1-.836-3.927-.576-2.655-.533-5.052-.472-7.768.045-5.94-.398-11.68-1.133-17.57l-.38-3.137c-1.44-11.255-3.456-22.41-5.513-33.565l-.395-2.158q-.538-2.919-1.084-5.837C147 66 147 66 147 62"/><path fill="#f3f3f3" d="M47 85c5.532 5.532 3.22 20.068 3.25 27.438l.063 3.736c.032 7.69-.106 15.695-3.313 22.826-2.108 1.326-2.108 1.326-4 2l.992-2.454c1.205-4.24 1.225-7.902 1.133-12.276l-.023-2.519c-.032-3.53-.088-7.059-.143-10.588-.27-19.13-.27-19.13 2.041-28.163"/><path fill="#bcbcbc" d="M93 61v3l-1 1c-.394 3.482-.436 7-.562 10.5l-.13 3.447C90.654 99.619 90.919 120.32 91 141h-1c-1.945-11.52-1.732-23.346-2-35l-.061-2.513a1231 1231 0 0 1-.28-16.222 560 560 0 0 0-.094-5.389c-.054-2.54-.075-5.08-.088-7.622l-.069-2.304c.016-4.13.426-5.752 3.125-8.966z"/><path fill="#c8c8c8" d="M232 54c-2.65 2.65-4.72 2.772-8.379 3.55l-1.938.422q-2.056.447-4.113.885C202.047 62.174 186.592 65.582 172 72v-2c18.183-8.492 39.614-16.637 60-16"/><path fill="#151515" d="M228 57c-2.291 2.664-3.983 3.5-7.402 4.21l-2.672.578-2.863.587q-2.972.64-5.942 1.285l-3.063.66c-4.834 1.074-9.633 2.277-14.433 3.493l-2.629.663q-2.999.76-5.996 1.524l-1-3c10.024-3.116 20.118-5.87 30.313-8.375l3.306-.833 3.12-.753 2.782-.681c2.524-.364 4.085-.167 6.479.642"/><path fill="#212121" d="M42 76c1.34 4.02.139 6.14-1.21 10.04-2.27 8.51-1.913 17.28-1.852 26.022l.013 3.78Q38.97 120.42 39 125h-3c-3.216-16.42-1.016-33.865 6-49"/><path fill="#eaeaea" d="M221 103c-4.086 4.28-8.736 6.308-14.062 8.625l-2.221.984C199.247 115 199.247 115 197 115c.507-3.749 1.091-5.57 4-8 1.854-.815 1.854-.815 3.906-1.422l2.254-.668 2.34-.66 2.34-.707c5.775-1.671 5.775-1.671 9.16-.543"/><path fill="#b5b5b5" d="M160 96c2.57 2.216 3.407 3.606 3.766 6.973l.26 2.44.224 2.65.251 2.744c.912 11.733.205 23.466-.501 35.193h-1l-.06-2.085c-.395-13.129-.968-26.14-2.538-39.185-.319-2.96-.49-5.76-.402-8.73"/><path fill="#161616" d="M325 46c-10.889 3.721-21.81 7.277-33 10 1.163-2.689 1.869-4.059 4-6 4.066-1.527 8.227-2.216 12.5-2.937l3.457-.667c9.18-1.688 9.18-1.688 13.043-.396"/><path fill="#393939" d="M90 92h1l2 59c-4.14-6.21-3.134-14.185-3.098-21.402l.005-3.266c.005-3.423.018-6.846.03-10.27q.009-3.492.014-6.986.017-8.538.049-17.076"/><path fill="#191919" d="m202 63 1 2-20 5-1-3q4.152-1.296 8.313-2.562l2.38-.749 2.295-.693 2.11-.65C199 62 199 62 202 63"/><path fill="#3a3a3a" d="M35 101c2.077 1.69 2.923 2.598 3.432 5.268l.08 2.619.107 2.842.069 2.959.103 2.994q.124 3.658.209 7.318h-3c-1.063-5.173-1.117-10.124-1.062-15.375l.013-2.52q.02-3.052.049-6.105"/><path fill="#303030" d="m221 103-23 9 1-4c1.81-1.02 1.81-1.02 4.148-1.738l2.547-.795 2.68-.78 2.656-.837c6.552-1.989 6.552-1.989 9.969-.85"/><path fill="#4e4e4e" d="M306 148c-3.587 2.084-7.207 2.801-11.25 3.625-1.895.39-1.895.39-3.828.79L288 153l4 2h-7v-3l-2-1q4.061-.758 8.125-1.5l2.305-.434c4.25-.77 8.229-1.232 12.57-1.066"/><path fill="#878787" d="M205 151h-2l1 3c-5.313 2.09-9.287 3.611-15 2 2.67-1.78 5.05-2.972 8-4.187l2.625-1.106C202 150 202 150 205 151"/><path fill="#404040" d="M325 46q-3.654 1.258-7.312 2.5l-2.092.723C312.61 50.233 310.173 51 307 51v-2l-2-1q3.873-.795 7.75-1.562l2.21-.46c3.706-.724 6.433-1.076 10.04.022"/><path fill="#303030" d="m333 84 3 1-1.504 1.469A227 227 0 0 0 321 101c0-4.106 2.18-5.7 4.875-8.5 2.622-2.779 5.005-5.32 7.125-8.5"/><path fill="#151515" d="m345 71 3 1-12 12-2-1z"/><path fill="#bfbfbf" d="M160 96c1.488 1.02 1.488 1.02 3 3 .217 2.65.284 5.05.188 7.688l-.042 2.126c-.035 1.73-.089 3.458-.146 5.186h-1q-.506-3.093-1-6.187l-.562-3.481c-.373-2.836-.524-5.48-.438-8.332"/><path fill="#5e5e5e" d="M157 138h1l1 9h1v6h-2l-1 2z"/><path fill="#ddd" d="M295 152q2.495.524 5 1v1h-14c3.037-3.037 4.938-3.354 9-2"/><path fill="#e7e7e7" d="m203 60-1 2c-2.285.633-2.285.633-5.062 1.125l-2.786.508L192 64c2-3 2-3 3.813-3.687 2.423-.347 4.742-.38 7.187-.313"/><path fill="#303030" d="m202 63 1 2-7 1-1-3c3.01-.934 3.867-1.044 7 0"/><path fill="#2c2c2c" d="M228 57c-1.312 1.5-1.312 1.5-3 3h-3v-2l-2-1c3.053-.981 4.947-.981 8 0"/><path fill="#d6d6d6" d="m201 110 2 1v2l-6 2c.313-1.937.313-1.937 1-4z"/><path fill="#6c6c6c" d="M90 141c1.5 1.063 1.5 1.063 3 3 .188 3.688.188 3.688 0 7-2.296-3.445-2.54-5.938-3-10"/><path fill="#080808" d="M222 58v2l-8 1c2.466-3.115 4.108-3.316 8-3"/></svg>